<?xml version="1.0" encoding="UTF-8" standalone="no"?>
<!-- Created with Inkscape (http://www.inkscape.org/) -->

<svg
   width="27.561218mm"
   height="29.560091mm"
   viewBox="0 0 27.561218 29.560091"
   version="1.1"
   id="svg5"
   inkscape:version="1.1.2 (b8e25be833, 2022-02-05)"
   sodipodi:docname="remove_btn.svg"
   xmlns:inkscape="http://www.inkscape.org/namespaces/inkscape"
   xmlns:sodipodi="http://sodipodi.sourceforge.net/DTD/sodipodi-0.dtd"
   xmlns="http://www.w3.org/2000/svg"
   xmlns:svg="http://www.w3.org/2000/svg">
  <sodipodi:namedview
     id="namedview7"
     pagecolor="#ffffff"
     bordercolor="#666666"
     borderopacity="1.0"
     inkscape:pageshadow="2"
     inkscape:pageopacity="0.0"
     inkscape:pagecheckerboard="0"
     inkscape:document-units="mm"
     showgrid="false"
     inkscape:zoom="0.74029882"
     inkscape:cx="158.04429"
     inkscape:cy="31.068535"
     inkscape:window-width="1920"
     inkscape:window-height="1017"
     inkscape:window-x="-8"
     inkscape:window-y="-8"
     inkscape:window-maximized="1"
     inkscape:current-layer="layer1" />
  <defs
     id="defs2" />
  <g
     inkscape:label="Livello 1"
     inkscape:groupmode="layer"
     id="layer1"
     transform="translate(-40.502415,-59.769679)">
    <path
       style="fill:#666666;fill-opacity:1;stroke-width:0.0301707"
       d="m 45.438651,89.288737 c -0.752207,-0.161774 -1.328355,-0.677576 -1.579022,-1.413638 l -0.0822,-0.241365 -0.0079,-11.291377 -0.0079,-11.291378 h -1.111883 c -0.625964,0 -1.182444,-0.01337 -1.273342,-0.03062 -0.338762,-0.06424 -0.593285,-0.249612 -0.752269,-0.547873 -0.136688,-0.25643 -0.160151,-0.583472 -0.06076,-0.846971 0.08591,-0.227752 0.314712,-0.477381 0.538132,-0.587095 l 0.171674,-0.0843 3.051294,-0.0081 3.051294,-0.0081 0.01427,-0.806508 c 0.01263,-0.713609 0.02159,-0.829096 0.07782,-1.002617 0.222559,-0.686837 0.866509,-1.201877 1.655477,-1.324075 0.295807,-0.04581 10.226399,-0.04711 10.508703,-0.0015 0.833568,0.135058 1.485712,0.675064 1.675215,1.38716 0.03293,0.123751 0.04389,0.360874 0.04415,0.955979 l 4.21e-4,0.791406 2.979355,0.0081 2.979353,0.0081 0.142322,0.06575 c 0.20057,0.09266 0.430621,0.318982 0.527309,0.518766 0.0703,0.145265 0.08233,0.208922 0.0834,0.441287 0.0011,0.232801 -0.01026,0.296054 -0.07932,0.443404 -0.14743,0.31452 -0.42927,0.531102 -0.776933,0.597036 -0.08957,0.01698 -0.623075,0.03062 -1.198229,0.03062 H 64.972398 V 76.31326 c 0,9.944471 -0.0053,11.283451 -0.04555,11.442232 -0.02506,0.0989 -0.101769,0.295221 -0.170473,0.436269 -0.100752,0.206841 -0.175107,0.306348 -0.384376,0.514393 -0.278555,0.276927 -0.506952,0.416603 -0.893044,0.546146 l -0.211195,0.07086 -8.809838,0.0052 c -7.710878,0.0046 -8.835954,-4.22e-4 -9.019201,-0.03979 z m 13.13183,-2.047561 c 2.104534,-0.0097 3.378915,-0.0267 3.466149,-0.04625 0.370497,-0.08303 0.682437,-0.327023 0.791804,-0.619334 l 0.06264,-0.167419 -0.0078,-10.309006 -0.0078,-10.309008 -0.0713,-0.157702 c -0.12197,-0.269776 -0.39746,-0.473802 -0.744887,-0.551663 -0.07914,-0.01774 -3.076149,-0.02936 -7.839077,-0.0304 l -7.710961,-0.0017 -0.152849,0.06575 c -0.185748,0.07991 -0.340324,0.252438 -0.413201,0.4612 -0.05123,0.146758 -0.05381,0.650335 -0.05381,10.502693 V 86.42688 l 0.07042,0.174457 c 0.142231,0.352376 0.38847,0.571257 0.724228,0.643761 0.173095,0.03738 3.128806,0.0364 11.886457,-0.0039 z M 49.242865,85.1412 C 48.89587,85.08766 48.568871,84.823546 48.432881,84.486981 l -0.06951,-0.172023 -0.008,-8.055571 c -0.0048,-4.885194 0.0031,-8.13597 0.02024,-8.259858 0.05121,-0.370432 0.231838,-0.635418 0.55116,-0.808547 0.179299,-0.09721 0.208221,-0.103479 0.477481,-0.103458 0.230751,1.7e-5 0.314364,0.01283 0.428944,0.06575 0.199525,0.09215 0.430321,0.318659 0.528608,0.518799 l 0.08334,0.169696 0.0078,8.21748 c 0.005,5.293724 -0.0028,8.256487 -0.02179,8.327108 -0.04992,0.185196 -0.219657,0.433607 -0.378187,0.553484 -0.233165,0.176314 -0.516283,0.246688 -0.810068,0.20136 z m 4.965362,-6.32e-4 c -0.325428,-0.05265 -0.653353,-0.307542 -0.799763,-0.621634 l -0.06693,-0.143582 V 76.12362 67.871939 l 0.08027,-0.171223 c 0.10709,-0.228441 0.286268,-0.416754 0.499198,-0.524644 0.156898,-0.0795 0.204162,-0.08857 0.461423,-0.08857 0.252121,0 0.30711,0.01007 0.45683,0.08359 0.207312,0.101807 0.396449,0.300644 0.503794,0.529628 l 0.08026,0.171223 v 8.236595 8.236595 l -0.0845,0.181025 c -0.100745,0.215827 -0.286378,0.416163 -0.475323,0.512972 -0.121421,0.06221 -0.19288,0.08157 -0.435808,0.118067 -0.03319,0.005 -0.131942,-0.0025 -0.219454,-0.01668 z m 4.980545,8.43e-4 c -0.320994,-0.04064 -0.644363,-0.278606 -0.794938,-0.584997 l -0.07414,-0.150853 v -8.296936 -8.296937 l 0.084,-0.159428 c 0.112067,-0.212696 0.29225,-0.387441 0.499864,-0.484778 0.144757,-0.06787 0.21127,-0.07989 0.44194,-0.07989 0.230669,0 0.297183,0.01203 0.441939,0.07989 0.217002,0.101737 0.402234,0.286971 0.503973,0.503973 l 0.07989,0.170404 v 8.281851 8.281851 l -0.103481,0.19086 c -0.219542,0.404926 -0.613548,0.603924 -1.079052,0.54499 z m 0.0813,-22.730366 v -0.527987 h -4.88765 -4.887649 v 0.527987 0.527988 h 4.887649 4.88765 z"
       id="path836" />
  </g>
</svg>
