<?xml version="1.0" encoding="UTF-8" standalone="no"?>
<!-- Created with Inkscape (http://www.inkscape.org/) -->

<svg
   version="1.1"
   id="svg914"
   width="53.751999"
   height="57.900002"
   viewBox="0 0 53.752001 57.900002"
   sodipodi:docname="img_574534.png"
   inkscape:version="1.1.2 (b8e25be833, 2022-02-05)"
   xmlns:inkscape="http://www.inkscape.org/namespaces/inkscape"
   xmlns:sodipodi="http://sodipodi.sourceforge.net/DTD/sodipodi-0.dtd"
   xmlns="http://www.w3.org/2000/svg"
   xmlns:svg="http://www.w3.org/2000/svg">
  <defs
     id="defs918" />
  <sodipodi:namedview
     id="namedview916"
     pagecolor="#ffffff"
     bordercolor="#666666"
     borderopacity="1.0"
     inkscape:pageshadow="2"
     inkscape:pageopacity="0.0"
     inkscape:pagecheckerboard="0"
     showgrid="false"
     width="105.75246px"
     inkscape:zoom="3.3918367"
     inkscape:cx="23.143803"
     inkscape:cy="56.16426"
     inkscape:window-width="1419"
     inkscape:window-height="1040"
     inkscape:window-x="145"
     inkscape:window-y="14"
     inkscape:window-maximized="0"
     inkscape:current-layer="g920" />
  <g
     inkscape:groupmode="layer"
     inkscape:label="Image"
     id="g920"
     transform="translate(-395.20167,-453.66719)">
    <path
       style="fill:#666666;stroke-width:0;stroke-miterlimit:4;stroke-dasharray:none"
       d="m 398.02803,510.23677 c -0.52349,-0.32441 -0.79239,-0.72764 -0.80274,-1.20339 -0.0835,-3.84202 0.7381,-7.37644 2.53605,-10.90928 1.79703,-3.53115 4.16444,-6.30581 7.46318,-8.74682 2.34818,-1.73745 4.64805,-2.91107 8.13814,-4.15237 0.24506,-0.0887 0.44558,-0.21274 0.44558,-0.27869 0,-0.0652 -0.55932,-0.49879 -1.24293,-0.96189 -1.50245,-1.01779 -2.50891,-1.86498 -3.37292,-2.83941 -1.64392,-1.8539 -2.80267,-4.04557 -3.4295,-6.48637 -0.24388,-0.94955 -0.25418,-1.08555 -0.24981,-3.3007 0.004,-2.29557 0.006,-2.31737 0.30019,-3.38882 1.47791,-5.39032 5.03549,-9.14855 10.25424,-10.83258 1.70519,-0.55065 2.28982,-0.63983 4.21333,-0.64451 2.13387,-0.005 3.44974,0.17568 5.01861,0.68904 3.94989,1.29278 7.04526,3.91901 8.86657,7.52309 1.30578,2.5837 1.63301,4.08026 1.5662,7.16195 -0.0399,1.84172 -0.064,2.0664 -0.32936,3.07005 -0.99166,3.75102 -3.27931,6.76682 -6.98437,9.20795 -0.55462,0.3655 -1.00841,0.70412 -1.00841,0.75251 0,0.12748 0.38876,0.30723 1.60088,0.74054 2.505,0.89573 5.79222,2.71712 7.83122,4.33907 0.97937,0.77919 2.93037,2.71194 3.73457,3.70025 2.57956,3.16929 4.39297,7.03186 5.13463,10.93736 0.14005,0.7375 0.20845,1.55609 0.24055,2.8787 0.0403,1.66082 0.0276,1.88099 -0.12587,2.1705 -0.46626,0.87941 -1.98244,0.989 -2.56331,0.18537 -0.24187,-0.33461 -0.34211,-0.84677 -0.51538,-2.63296 -0.31412,-3.23874 -0.98928,-5.62012 -2.3519,-8.29521 -2.6235,-5.15083 -7.34141,-9.1113 -12.963,-10.88168 -2.16791,-0.68292 -4.41243,-1.01621 -6.84364,-1.01621 -4.97674,0 -9.45655,1.48662 -13.48771,4.47588 -0.9026,0.66923 -2.93605,2.60188 -3.75837,3.5722 -0.9236,1.09012 -1.76246,2.3958 -2.60716,4.05837 -1.26432,2.48881 -1.89011,4.64525 -2.17228,7.48574 -0.2856,2.87522 -0.3524,3.13506 -0.90558,3.52312 -0.41668,0.29222 -1.23767,0.34217 -1.6297,0.1 z m 27.53601,-27.31333 c 2.27038,-0.596 4.04946,-1.63531 5.70178,-3.3307 1.26911,-1.30248 2.09118,-2.67248 2.77109,-4.61838 l 0.39178,-1.12126 -0.007,-2.4489 -0.007,-2.44925 -0.34441,-1.00424 c -0.64258,-1.87406 -1.45938,-3.24148 -2.72384,-4.56081 -1.75358,-1.8298 -3.43342,-2.82272 -5.77425,-3.41363 -0.69165,-0.1744 -1.24548,-0.23895 -2.40003,-0.27933 -2.48624,-0.0889 -3.91268,0.19548 -5.90977,1.17223 -1.38584,0.67795 -2.10045,1.20239 -3.26138,2.39395 -1.03038,1.05788 -1.46429,1.65296 -2.06085,2.82714 -0.66231,1.30357 -1.20191,3.0846 -1.07703,3.55497 0.0273,0.10323 0.0115,0.21071 -0.0352,0.23945 -0.13191,0.0804 -0.0948,3.04697 0.0479,3.82969 0.26234,1.43898 0.99315,3.12794 1.95519,4.51821 0.26778,0.38669 0.91005,1.12028 1.42727,1.63015 1.68866,1.66422 3.4716,2.62712 5.91212,3.19391 0.63966,0.1483 1.0274,0.16867 2.62656,0.13731 1.63559,-0.0335 1.99037,-0.0658 2.76727,-0.27051 z"
       id="path1133" />
  </g>
</svg>
