<?xml version="1.0" encoding="UTF-8" standalone="no"?>
<!-- Created with Inkscape (http://www.inkscape.org/) -->

<svg
   width="112.90498mm"
   height="157.75273mm"
   viewBox="0 0 112.90498 157.75273"
   version="1.1"
   id="svg1720"
   inkscape:version="1.1.2 (b8e25be833, 2022-02-05)"
   sodipodi:docname="db_s.svg"
   xmlns:inkscape="http://www.inkscape.org/namespaces/inkscape"
   xmlns:sodipodi="http://sodipodi.sourceforge.net/DTD/sodipodi-0.dtd"
   xmlns="http://www.w3.org/2000/svg"
   xmlns:svg="http://www.w3.org/2000/svg">
  <sodipodi:namedview
     id="namedview1722"
     pagecolor="#ffffff"
     bordercolor="#666666"
     borderopacity="1.0"
     inkscape:pageshadow="2"
     inkscape:pageopacity="0.0"
     inkscape:pagecheckerboard="0"
     inkscape:document-units="mm"
     showgrid="false"
     inkscape:zoom="0.90509668"
     inkscape:cx="128.71553"
     inkscape:cy="279.52815"
     inkscape:window-width="1920"
     inkscape:window-height="1017"
     inkscape:window-x="-8"
     inkscape:window-y="-8"
     inkscape:window-maximized="1"
     inkscape:current-layer="layer1"
     inkscape:lockguides="false" />
  <defs
     id="defs1717" />
  <g
     inkscape:label="Livello 1"
     inkscape:groupmode="layer"
     id="layer1"
     transform="translate(-37.757479,-46.054774)">
    <path
       style="fill:#979797;fill-opacity:1;stroke-width:0.353;stroke-miterlimit:4;stroke-dasharray:none"
       d="m 83.105285,203.73207 c -16.06776,-1.57422 -27.90202,-4.72881 -36.17271,-9.64233 -3.46348,-2.05762 -6.803239,-5.27972 -8.001354,-7.71948 l -0.981492,-1.99865 -0.109814,-9.29702 c -0.0604,-5.11336 0.01953,-9.24086 0.177621,-9.17222 0.15809,0.0686 2.148024,1.04286 4.422079,2.16494 8.68905,4.2874 23.66313,8.10998 36.87616,9.41375 10.579719,1.04393 25.098285,0.76204 35.363115,-0.68661 12.69263,-1.79128 25.71315,-5.55634 33.0563,-9.5587 1.39756,-0.76173 2.63748,-1.38497 2.75538,-1.38497 0.1179,0 0.16507,4.16719 0.10481,9.26042 l -0.10955,9.26041 -0.98149,1.99865 c -3.14242,6.399 -14.27723,12.21094 -29.18101,15.23134 -8.57122,1.73705 -12.49059,2.08554 -24.518046,2.18003 -6.20889,0.0488 -11.923889,0.0265 -12.699999,-0.0496 z m 0.17639,-38.59081 c -17.13533,-1.41477 -31.4998,-5.29772 -39.64331,-10.71622 -2.999619,-1.99588 -4.822588,-3.87004 -5.501672,-5.65617 -0.360618,-0.94849 -0.541316,-20.66531 -0.189391,-20.66531 0.09568,0 2.278492,1.0201 4.850693,2.2669 8.11985,3.93584 19.52208,7.02908 32.72257,8.87711 6.40957,0.89732 26.418915,1.0957 33.870045,0.3358 14.01763,-1.42958 28.10728,-5.06047 37.05953,-9.55019 2.11616,-1.06129 3.93634,-1.92962 4.04487,-1.92962 0.10852,0 0.15085,4.65736 0.0941,10.3497 l -0.10325,10.34969 -1.05833,1.53209 c -2.84652,4.1207 -12.02177,8.74316 -22.72659,11.44955 -4.10582,1.03804 -10.28134,2.11059 -16.43174,2.85383 -5.3848,0.65073 -21.548666,0.9519 -26.987495,0.50284 z m 0.1932,-37.75012 c -8.39229,-0.61973 -17.43052,-2.25659 -25.51718,-4.62126 -8.01042,-2.34238 -13.41049,-4.97297 -16.966137,-8.26486 -3.288699,-3.04476 -3.218218,-2.7214 -3.218218,-14.765191 0,-5.743 0.0983,-10.44182 0.218436,-10.44182 0.12014,0 1.112328,0.542264 2.204861,1.205034 8.819268,5.350036 22.683648,9.482646 38.146148,11.370347 7.17253,0.87564 24.526965,0.87915 31.749995,0.006 15.31842,-1.85086 29.18469,-5.989601 38.14614,-11.385697 1.09254,-0.65786 2.08473,-1.196116 2.20486,-1.196116 0.12014,0 0.21844,4.698812 0.21844,10.441822 0,12.132531 0.0944,11.722761 -3.4471,14.967881 -5.8087,5.32261 -20.76284,10.26338 -36.76956,12.14846 -5.67611,0.66846 -21.036846,0.97314 -26.970685,0.53496 z m -0.54598,-37.782067 c -18.28793,-1.462967 -33.97715,-6.587531 -40.91435,-13.36384 -3.035019,-2.964633 -4.030206,-5.001774 -4.049973,-8.290278 -0.02005,-3.335702 1.15172,-5.72172 4.219063,-8.591067 6.45833,-6.041453 18.56486,-10.414542 35.02459,-12.651489 6.48401,-0.881204 27.563245,-0.875499 34.119275,0.0092 19.87919,2.682685 34.39069,9.055361 38.17684,16.765234 1.31378,2.675293 1.35618,6.092227 0.10799,8.701422 -3.02304,6.319287 -14.55044,12.36523 -29.21794,15.324375 -11.10946,2.241313 -25.551916,3.049453 -37.465495,2.096413 z"
       id="path934" />
  </g>
</svg>
