<?xml version="1.0" encoding="UTF-8" standalone="no"?>
<!-- Created with Inkscape (http://www.inkscape.org/) -->

<svg
   width="112.90498mm"
   height="223.75272mm"
   viewBox="0 0 112.90498 223.75271"
   version="1.1"
   id="svg1720"
   inkscape:version="1.1.2 (b8e25be833, 2022-02-05)"
   sodipodi:docname="db_s.svg"
   xmlns:inkscape="http://www.inkscape.org/namespaces/inkscape"
   xmlns:sodipodi="http://sodipodi.sourceforge.net/DTD/sodipodi-0.dtd"
   xmlns="http://www.w3.org/2000/svg"
   xmlns:svg="http://www.w3.org/2000/svg">
  <sodipodi:namedview
     id="namedview1722"
     pagecolor="#ffffff"
     bordercolor="#666666"
     borderopacity="1.0"
     inkscape:pageshadow="2"
     inkscape:pageopacity="0.0"
     inkscape:pagecheckerboard="0"
     inkscape:document-units="mm"
     showgrid="false"
     inkscape:zoom="0.90509668"
     inkscape:cx="128.1631"
     inkscape:cy="293.89126"
     inkscape:window-width="1920"
     inkscape:window-height="1017"
     inkscape:window-x="-8"
     inkscape:window-y="-8"
     inkscape:window-maximized="1"
     inkscape:current-layer="layer1"
     inkscape:lockguides="false"
     height="223.75272mm" />
  <defs
     id="defs1717" />
  <g
     inkscape:label="Livello 1"
     inkscape:groupmode="layer"
     id="layer1"
     transform="translate(-37.757479,-46.054774)"
     style="display:inline">
    <path
       style="fill:#979797;fill-opacity:1;stroke-width:0.353;stroke-miterlimit:4;stroke-dasharray:none"
       d="m 83.105285,268.29081 c -16.06776,-1.57422 -27.90202,-4.72881 -36.17271,-9.64233 -3.46348,-2.05762 -6.803239,-5.27972 -8.001354,-7.71948 l -0.981492,-1.99865 -0.109814,-9.29702 c -0.0604,-5.11336 0.01953,-9.24086 0.177621,-9.17222 0.15809,0.0686 2.148024,1.04286 4.422079,2.16494 8.68905,4.2874 23.66313,8.10998 36.87616,9.41375 10.579719,1.04393 25.098285,0.76204 35.363115,-0.68661 12.69263,-1.79128 25.71315,-5.55634 33.0563,-9.5587 1.39756,-0.76173 2.63748,-1.38497 2.75538,-1.38497 0.1179,0 0.16507,4.16719 0.10481,9.26042 l -0.10955,9.26041 -0.98149,1.99865 c -3.14242,6.399 -14.27723,12.21094 -29.18101,15.23134 -8.57122,1.73705 -12.49059,2.08554 -24.518046,2.18003 -6.20889,0.0488 -11.923889,0.0265 -12.699999,-0.0496 z M 83.281675,229.7 c -17.13533,-1.41477 -31.4998,-5.29772 -39.64331,-10.71622 -2.999619,-1.99588 -4.822588,-3.87004 -5.501672,-5.65617 -0.360618,-0.94849 -0.541316,-20.66531 -0.189391,-20.66531 0.09568,0 2.278492,1.0201 4.850693,2.2669 8.11985,3.93584 19.52208,7.02908 32.72257,8.87711 6.40957,0.89732 26.418915,1.0957 33.870045,0.3358 14.01763,-1.42958 28.10728,-5.06047 37.05953,-9.55019 2.11616,-1.06129 3.93634,-1.92962 4.04487,-1.92962 0.10852,0 0.15085,4.65736 0.0941,10.3497 l -0.10325,10.34969 -1.05833,1.53209 c -2.84652,4.1207 -12.02177,8.74316 -22.72659,11.44955 -4.10582,1.03804 -10.28134,2.11059 -16.43174,2.85383 -5.3848,0.65073 -21.548666,0.9519 -26.987495,0.50284 z m 0.1932,-37.75012 c -8.39229,-0.61973 -17.43052,-2.25659 -25.51718,-4.62126 -8.01042,-2.34238 -13.41049,-4.97297 -16.966137,-8.26486 -3.288699,-3.04476 -3.218218,-2.7214 -3.218218,-14.76519 0,-5.74304 0.0983,-10.44188 0.218436,-10.44188 0.12014,0 1.112328,0.54226 2.204861,1.20504 8.819268,5.35006 22.683648,9.4827 38.146148,11.3704 7.17253,0.87564 24.526965,0.87915 31.749995,0.006 15.31842,-1.85086 29.18469,-5.98963 38.14614,-11.38575 1.09254,-0.65787 2.08473,-1.19613 2.20486,-1.19613 0.12014,0 0.21844,4.69884 0.21844,10.44189 0,12.13253 0.0944,11.72276 -3.4471,14.96788 -5.8087,5.32261 -20.76284,10.26338 -36.76956,12.14846 -5.67611,0.66846 -21.036846,0.97314 -26.970685,0.53496 z m -0.54598,-37.78213 c -18.28793,-1.46297 -33.97715,-6.58757 -40.91435,-13.36391 -3.035019,-2.96465 -4.030206,-5.00181 -4.049973,-8.29033 -0.02005,-3.33572 1.15172,-5.72175 4.219063,-8.59111 6.45833,-6.04149 18.56486,-10.41461 35.02459,-12.65156 6.48401,-0.88121 27.563245,-0.87551 34.119275,0.009 19.87919,2.6827 34.39069,9.05541 38.17684,16.76532 1.31378,2.67531 1.35618,6.09227 0.10799,8.70148 -3.02304,6.31932 -14.55044,12.36529 -29.21794,15.32446 -11.10946,2.24132 -25.551916,3.04947 -37.465495,2.09642 z"
       id="path934" />
    <circle
       style="fill:#333333;stroke-width:0"
       id="path2156"
       cx="94.942406"
       cy="92.890427"
       r="46.041351" />
    <path
       style="fill:#979797;fill-opacity:1;stroke-width:0.102877"
       d="M 97.261673,106.78349 V 86.927685 l 6.475297,-4.632673 6.4753,-4.632683 v -0.437747 -0.43776 H 96.018407 81.824556 v 5.837757 5.837747 l -0.456608,0.481317 c -0.573995,0.605057 -0.836247,1.109164 -0.99753,1.917471 -0.153995,0.771784 -0.01103,1.672631 0.374526,2.359905 0.137926,0.24587 0.250774,0.464217 0.250774,0.485227 0,0.0211 -0.374166,0.0382 -0.831478,0.0382 h -0.831478 l 0.02854,-9.270516 c 0.02772,-9.005099 0.03434,-9.278959 0.231026,-9.565386 0.415571,-0.605147 -0.493744,-0.573457 16.448651,-0.573287 14.615741,1.5e-4 15.592191,0.0111 15.932571,0.17878 0.20715,0.102027 0.44046,0.331897 0.54418,0.536147 0.17149,0.337717 0.18009,1.519121 0.15541,21.317257 l -0.0261,20.959809 -0.2171,0.28841 c -0.46396,0.61634 -1.45391,0.6301 -1.93271,0.0268 l -0.24257,-0.3056 -5.22731,3.7429 c -2.87501,2.05859 -5.798434,4.15164 -6.496473,4.65121 l -1.269156,0.90832 z m 5.220577,0.81425 c 0.71885,-0.29616 1.09116,-1.78667 0.74206,-2.97074 -0.20478,-0.69453 -0.63308,-1.17785 -1.04381,-1.17785 -0.37871,0 -0.93346,0.56718 -1.08016,1.10434 l -0.11688,0.42799 h -0.72125 -0.721231 v 0.51078 0.51078 h 0.675641 c 0.60494,0 0.68509,0.024 0.76572,0.22984 0.35121,0.89633 0.50039,1.14731 0.78287,1.31716 0.37524,0.22563 0.29767,0.22048 0.71704,0.0476 z m -22.184985,10.49161 c -0.368933,-0.0731 -0.819144,-0.58885 -0.891643,-1.02146 -0.03592,-0.21431 -0.06581,-3.89485 -0.06644,-8.17898 l -0.0011,-7.78932 h 0.837472 c 0.46061,0 0.819696,0.0344 0.797969,0.0766 -0.604581,1.17259 -0.645326,1.30754 -0.640023,2.11972 0.0069,1.06001 0.292255,1.79993 0.980387,2.54232 l 0.51071,0.55098 -0.0015,5.39989 c -0.0011,4.08242 -0.03275,5.4598 -0.129505,5.64543 -0.246841,0.47359 -0.859859,0.76108 -1.396259,0.65481 z m 2.745851,-13.80143 c -0.357849,-0.044 -0.861484,-0.53281 -0.936758,-0.90924 -0.132018,-0.6602 -0.0087,-0.83292 2.080637,-2.91384 l 2.021981,-2.013831 -6.414105,-0.0293 c -7.16889,-0.0327 -6.769434,0.01 -7.140051,-0.760254 -0.344062,-0.714917 0.134609,-1.571911 0.95239,-1.705161 0.217352,-0.0354 3.143351,-0.0649 6.502218,-0.0655 l 6.107033,-0.002 -2.025003,-2.017538 c -2.090461,-2.082778 -2.215793,-2.257978 -2.086247,-2.916412 0.07134,-0.36263 0.557766,-0.847307 0.918595,-0.915317 0.637718,-0.120197 0.846109,0.0466 4.214101,3.373512 l 3.289451,3.249302 v 0.503807 0.503807 l -3.289451,3.247005 c -3.350186,3.30699 -3.530309,3.45169 -4.194791,3.37005 z"
       id="path926" />
    <text
       xml:space="preserve"
       style="font-style:normal;font-weight:normal;font-size:14.1111px;line-height:1.25;font-family:sans-serif;fill:#000000;fill-opacity:1;stroke:none;stroke-width:0.264583"
       x="84.126343"
       y="67.200897"
       id="text4264"><tspan
         sodipodi:role="line"
         id="tspan4262"
         style="font-size:14.1111px;fill:#979797;fill-opacity:1;stroke-width:0.264583"
         x="84.126343"
         y="67.200897">Exit</tspan></text>
  </g>
  <g
     inkscape:groupmode="layer"
     id="layer2"
     inkscape:label="Livello 2"
     style="display:inline" />
</svg>
