<?xml version="1.0" encoding="UTF-8" standalone="no"?>
<!-- Created with Inkscape (http://www.inkscape.org/) -->

<svg
   width="34"
   height="46"
   viewBox="0 0 8.9958364 12.170834"
   version="1.1"
   id="svg1720"
   inkscape:version="1.1.2 (b8e25be833, 2022-02-05)"
   sodipodi:docname="db_s_white.svg"
   inkscape:export-filename="C:\Users\andry\Documents\1-_Python\PyQt5\Youtb3r_Scrap3r\yt_scraper_0.2_change_layout\ui\icons\db\db_s_white.svg"
   inkscape:export-xdpi="96"
   inkscape:export-ydpi="96"
   xmlns:inkscape="http://www.inkscape.org/namespaces/inkscape"
   xmlns:sodipodi="http://sodipodi.sourceforge.net/DTD/sodipodi-0.dtd"
   xmlns="http://www.w3.org/2000/svg"
   xmlns:svg="http://www.w3.org/2000/svg">
  <sodipodi:namedview
     id="namedview1722"
     pagecolor="#ffffff"
     bordercolor="#666666"
     borderopacity="1.0"
     inkscape:pageshadow="2"
     inkscape:pageopacity="0.0"
     inkscape:pagecheckerboard="false"
     inkscape:document-units="mm"
     showgrid="false"
     inkscape:zoom="7.2407734"
     inkscape:cx="33.283737"
     inkscape:cy="43.08932"
     inkscape:window-width="1920"
     inkscape:window-height="1017"
     inkscape:window-x="-8"
     inkscape:window-y="-8"
     inkscape:window-maximized="1"
     inkscape:current-layer="layer1"
     inkscape:lockguides="false"
     width="112.90498mm"
     units="px" />
  <defs
     id="defs1717" />
  <g
     inkscape:label="Livello 1"
     inkscape:groupmode="layer"
     id="layer1"
     transform="translate(-37.757479,-46.054774)">
    <path
       style="fill:#ffffff;fill-opacity:1;stroke-width:0.0260008;stroke-miterlimit:4;stroke-dasharray:none"
       d="m 41.581265,58.012736 c -1.184382,-0.106572 -2.05787,-0.332025 -2.66991,-0.689104 -0.256302,-0.149531 -0.50417,-0.384907 -0.593839,-0.563904 l -0.07346,-0.146641 -0.01351,-0.684702 c -0.0074,-0.376588 -0.004,-0.680646 0.0078,-0.675682 0.01169,0.005 0.15882,0.07556 0.326969,0.15688 0.64249,0.310719 1.747629,0.583538 2.721589,0.671858 0.779854,0.07072 1.849049,0.04149 2.604257,-0.0712 0.933823,-0.139337 1.89065,-0.424246 2.429174,-0.723319 0.10249,-0.05692 0.193454,-0.103549 0.202134,-0.103617 0.0087,-7e-5 0.0146,0.306835 0.01313,0.682013 l -0.0027,0.682132 -0.07113,0.147785 c -0.227721,0.473148 -1.044461,0.907716 -2.140432,1.138875 -0.630295,0.132944 -0.918774,0.160898 -1.804597,0.174871 -0.457283,0.0073 -0.878234,0.0088 -0.935441,0.0037 z m -0.0095,-2.842492 c -1.262922,-0.09421 -2.323195,-0.371828 -2.926163,-0.766174 -0.2221,-0.145257 -0.357463,-0.282236 -0.408522,-0.413396 -0.02711,-0.06965 -0.05193,-1.521779 -0.026,-1.521984 0.007,-5.6e-5 0.168416,0.0738 0.358598,0.164136 0.60036,0.285159 1.441991,0.506338 2.415345,0.634757 0.472618,0.06235 1.946514,0.0653 2.494879,0.005 1.031633,-0.113468 2.067279,-0.389117 2.724038,-0.725028 0.155242,-0.07941 0.288801,-0.14442 0.296797,-0.144483 0.008,-6.3e-5 0.01383,0.342945 0.01299,0.762247 l -0.0016,0.762362 -0.07706,0.113462 c -0.207254,0.305168 -0.88036,0.650987 -1.667241,0.856567 -0.301806,0.07885 -0.756039,0.16145 -1.208606,0.21978 -0.396237,0.05107 -1.586604,0.08268 -1.987461,0.05277 z m -0.0078,-2.780582 c -0.618493,-0.04077 -1.285154,-0.15604 -1.882153,-0.325494 -0.59137,-0.167857 -0.990645,-0.358461 -1.254454,-0.598849 -0.244004,-0.222345 -0.238625,-0.198569 -0.245649,-1.085647 -0.0033,-0.423 0.0012,-0.769148 0.01,-0.769218 0.0089,-7.1e-5 0.08224,0.0393 0.163101,0.08747 0.6527,0.38891 1.676286,0.68521 2.816271,0.81523 0.5288,0.06031 1.807036,0.05044 2.338536,-0.01808 1.127194,-0.145263 2.146092,-0.458184 2.802999,-0.860861 0.08008,-0.04909 0.152851,-0.08932 0.161701,-0.08939 0.0089,-7.1e-5 0.01883,0.345963 0.02219,0.768963 0.0071,0.893615 0.01379,0.86338 -0.245165,1.104465 -0.424732,0.395421 -1.523294,0.768053 -2.701161,0.916235 -0.417683,0.05255 -1.548894,0.08394 -1.986205,0.05513 z m -0.06226,-2.782506 c -1.347844,-0.09708 -2.506416,-0.465386 -3.021325,-0.960444 -0.225272,-0.216587 -0.29976,-0.366053 -0.303134,-0.608256 -0.0034,-0.245678 0.08149,-0.422099 0.305743,-0.635232 0.472162,-0.448746 1.361313,-0.777908 2.572343,-0.952265 0.477063,-0.06869 2.029649,-0.08056 2.513044,-0.01944 1.465758,0.185995 2.538315,0.646912 2.82168,1.212571 0.09832,0.196279 0.103443,0.447927 0.01303,0.640837 -0.218977,0.467208 -1.064495,0.919239 -2.143098,1.145749 -0.816958,0.171562 -1.880238,0.239509 -2.758283,0.176264 z"
       id="path934" />
    <path
       style="fill:#ffffff;stroke-width:0.184258;fill-opacity:1"
       d="M 13.626801,13.312808 C 7.9929109,12.811731 3.3360141,11.00885 2.0625127,8.8357841 1.5698337,7.9950911 1.5691598,6.9215926 2.0607842,6.082699 3.998265,2.7766379 12.490594,0.72641638 21.243399,1.4516242 c 5.35508,0.4436915 10.32385,2.4763578 11.298609,4.62213 1.112213,2.4483531 -1.230412,4.7032848 -6.462735,6.2208108 -3.248626,0.942196 -8.489293,1.370727 -12.452472,1.018243 z"
       id="path1225"
       transform="matrix(0.26458333,0,0,0.26458333,37.757479,46.054774)" />
    <path
       style="fill:#ffffff;stroke-width:0.184258;fill-opacity:1"
       d="M 13.626801,13.312808 C 8.9251896,12.894648 4.6491256,11.492006 2.7843415,9.7562463 1.7115077,8.7576417 1.3947215,7.3371917 1.9862572,6.1776859 3.1375528,3.9209601 8.4731081,1.8332276 14.078098,1.4463078 20.539791,1.0002485 25.664572,1.6916877 29.42454,3.516861 c 2.302873,1.1178658 3.366068,2.3074613 3.372791,3.7737743 0.0054,1.1794956 -0.723317,2.1435335 -2.460409,3.2549037 -3.337479,2.135279 -10.49282,3.320234 -16.710121,2.767269 z"
       id="path1264"
       transform="matrix(0.26458333,0,0,0.26458333,37.757479,46.054774)" />
    <path
       style="fill:#ffffff;stroke-width:0.184258;fill-opacity:1"
       d="M 13.603519,13.325069 C 8.8798688,12.881849 4.6396182,11.483157 2.7843415,9.7562463 1.7115077,8.7576417 1.3947215,7.3371917 1.9862572,6.1776859 2.7510597,4.6785492 5.4244858,3.1681537 8.8705412,2.2882976 12.157522,1.4490569 17.136861,1.0996508 21.061286,1.4328587 c 5.582993,0.4740305 10.488679,2.4570745 11.480722,4.6408955 0.332914,0.7328532 0.328311,1.7412656 -0.01098,2.4063348 -1.056912,2.07172 -5.387147,3.973538 -10.572046,4.643193 -2.014935,0.260239 -6.562131,0.370055 -8.355461,0.201787 z"
       id="path1303"
       transform="matrix(0.26458333,0,0,0.26458333,37.757479,46.054774)" />
  </g>
</svg>
